<svg width="24" height="24" viewBox="0 0 24 24" fill="none" xmlns="http://www.w3.org/2000/svg">
<path fill-rule="evenodd" clip-rule="evenodd" d="M22 10.8293C23.1652 10.4175 24 9.30622 24 8C24 6.34315 22.6569 5 21 5C19.3431 5 18 6.34315 18 8C18 9.30622 18.8348 10.4175 20 10.8293V14.9289C20 15.9898 19.5786 17.0072 18.8284 17.7574C17.2663 19.3195 14.7337 19.3195 13.1716 17.7574C12.4214 17.0072 12 15.9898 12 14.9289V12C12 11.4477 11.5523 11 11 11C10.4477 11 10 11.4477 10 12V14.9289C10 16.5202 10.6321 18.0464 11.7574 19.1716C14.1005 21.5147 17.8995 21.5147 20.2426 19.1716C21.3679 18.0464 22 16.5202 22 14.9289V10.8293ZM22 8C22 8.55228 21.5523 9 21 9C20.4477 9 20 8.55228 20 8C20 7.44772 20.4477 7 21 7C21.5523 7 22 7.44772 22 8Z" fill="#bdee63"/>
<path d="M4 8.82929C5.16519 8.41746 6 7.30622 6 6C6 4.34315 4.65685 3 3 3C1.34315 3 0 4.34315 0 6C0 7.30622 0.834808 8.41746 2 8.82929V13.8787C2 15.5022 2.64492 17.0591 3.79289 18.2071C4.94086 19.3551 6.49784 20 8.12132 20H9C9.55228 20 10 19.5523 10 19C10 18.4477 9.55228 18 9 18H8.12132C7.02828 18 5.98 17.5658 5.20711 16.7929C4.43421 16.02 4 14.9717 4 13.8787V8.82929Z" fill="#bdee63"/>
</svg>
