<svg width="448" height="448" viewBox="0 0 448 448" fill="none" xmlns="http://www.w3.org/2000/svg">
<path fill-rule="evenodd" clip-rule="evenodd" d="M224 448C347.712 448 448 347.712 448 224V192H445.732H314.537H224C206.327 192 192 206.327 192 224C192 241.673 206.327 256 224 256C241.673 256 256 241.673 256 224H320C320 277.019 277.019 320 224 320C170.981 320 128 277.019 128 224C128 170.981 170.981 128 224 128H426.444C390.493 52.3217 313.357 0 224 0C100.288 0 0 100.288 0 224C0 347.712 100.288 448 224 448Z" fill="#6e56cf"/>
</svg>
